<svg xmlns="http://www.w3.org/2000/svg" width="240" height="240" fill="none"><path fill="url(#a)" d="m58.5 191.6.8-2.5.6-1.7 2.9-10c.4-1.6 1.2-3.2 1.9-4.7 1-2.2 1.8-4.4 3-6.4 1.5-2.6 2.5-5.4 4.3-7.9l2.5-3.5.2-.3c.9-2.2 2.8-3.5 4-5.3a13 13 0 0 1 1.8-2l2-1.7c.3-.3.8-.5 1-1 1.6-2.2 3.9-3.7 6-5.3l5.3-3.3 3.4-2c2.4-1.1 4.6-2.8 7.3-3.4.7-.2 1.4-.7 2.2-1l2.2-.6.9-.3c1-.5 2.1-.9 3.3-1.1l5.4-1.4 2-.3 4-.6 5.2-.4h5.6c1.8-.1 3.7.1 5.5.3 1.2.2 2.4.6 3.7.6 1.5 0 2.9.3 4.3.6 2.4.6 4.8.9 7 2l1 .1 1.5.5c.6.3 1.3.7 2 .9 2.3.6 4.5 1.5 6.7 2.6 1.2.7 2.6 1.2 4 1.9a47 47 0 0 1 7.1 4.4l3.4 2.9c.3.2.6.5 1 .5.6.3 1.1.6 1.4 1.3l.2.4c1.4.6 2 2.2 3.3 3 .4.3.7.9 1.1 1.3l1.7 1.8c0 .1.2.1.2.3 1.5 2.2 3.6 4 4.8 6.6.6 1.5 1.3 2.9 2.2 4.1.5.9 1.1 1.6 1.5 2.6l.6 1.5c.5 2 2 3.5 2 5.6l.1.4c.5.8.7 1.6.9 2.5.1.8 0 1.7.8 2.4l.2.6c0 .7.1 1.3.4 2 .5 1.1.7 2.3 1 3.5l.5 3.1c0 1.6.8 3 1.3 4.4.7 2-1.2 4.5-3.3 4.4h-.5c-.6-.7-1.3-.2-1.9-.1-2.3.5-4.7.9-7.1.5l-2.6.2c-2 .1-4 .3-6.1.2h-6.7l-7.8-.2h-8c-1.1 0-2.3-.3-3.5-.2-2.5 0-5-.4-7.5 0-1.4.2-2.8.2-4.3 0-2.4-.2-4.9-.1-7.4.3h-.6c-1.8 0-3.6.4-5.4.3-1.8 0-3.4.1-5.2.3-1.9.2-3.9 0-5.8 0l-2 .2-5 .5-5.7.1c-2.5.1-5 .3-7.6.3-1 0-2.1-.1-3.2 0l-3.3.1h-2l-.6-.2c-.9.3-1.8.2-2.7.2l-2.3.2h-7.8l-.6.1c-2-.5-3.9.3-5.8-.1-1-.3-2 0-3 0h-6.9c-1 0-2-.2-3-.5-1.5-.4-2.6-1.6-3.5-2.9-.3-.5-.3-1-.5-1.7Z"/><path fill="url(#b)" d="m190 236.2-6.3.6c-1.1.1-2.3.2-3.4 0-2.1-.2-4.1.3-6.2.3-1.6 0-3.2 0-4.8.3-1.8.2-3.6-.4-5.4.3h-.7c-2.4-.3-4.6.3-7 .4l-9.6.3-4.8.4h-.3c-1.8-.6-3.5.2-5.3.3h-5.4c-1 .1-2 .2-3 .1-1.5 0-3 .4-4.5 0l-1.2.1h-5.8l-3.9-.1c-.2 0-.5-.2-.7-.1-1.2.4-2.5.3-3.7 0-1.3-.2-2.5 0-3.8 0h-1c-.3-.1-.6-.3-.9-.2-1.5.4-3.1 0-4.6-.1-2.1-.2-4.2.3-6.3-.3-.8-.3-1.8 0-2.7 0-2.2-.2-4.4-.3-6.4-1.2l-2.5-.7a25 25 0 0 1-7.6-3.4c-.7-.4-1.2-1.2-2.2-1.2-.3 0-.5-.3-.8-.4-1-.7-2-1.3-2.8-2-1.5-1.5-3.3-2.7-4.3-4.6l-2-3.1c-.9-1.8-.8-3.6.4-5.3a4.5 4.5 0 0 1 4.5-1.8h2.2c1-.2 1.9 0 2.8 0h1.8l.5-.1 4.3.1H83l1.4-.1c1.5 0 3-.3 4.6 0 1.3.1 2.6-.2 3.9-.2l2.8.1H112.1l3.9.2h.5c2.7-.3 5.3-.3 8 0 2 .1 4.1-.3 6.2 0l1 .1a2 2 0 0 0 2.1 0c.2-.2.6-.2.8-.2h9.9c2.2 0 4.3-.2 6.4-.4h2.7c.5-.1 1-.4 1.6-.2 1.3.2 2.6-.1 4-.2h.3c1.7.3 3.4 0 5 0 1.7 0 3.4-.2 5-.3h2c1.3-.1 2.6-.3 4-.3l6.9-.2c1.5 0 3-.2 4.5-.1 1.5 0 2.9 0 4.3-.3h1.8c1.2.4 2.3.3 3.5 0 1.5-.3 3-.3 4.5-.1l3.7.1c1 .1 2 .5 3 .8.7.3 1.1.9 1.2 1.7 0 .8.3 1.7.4 2.5v.9c-.2 1.3-.3 2.7-.8 3.9-.9 2.5-1.4 5.2-3 7.5-1.3 1.9-3.1 3.4-5.3 4.3-1.8.7-3.7 1.2-5.5 1.6-1.6.3-3.2.4-4.8.5l.1-.2Z"/><path fill="#290852" d="M199.7 87.2A6.3 6.3 0 0 0 198 84l-2.2-2c-.2-.3-.6-.6-.5-1.2.3-1 .3-2 .6-2.9.4-1.8.6-3.7 1.2-5.5.5-1.7.7-3.5 1-5.2.6-2 1-4.1 1-6.3 0-1.7 0-3.4-.3-5.2a8.3 8.3 0 0 0-1.3-3.1 4.8 4.8 0 0 0-2-1.8 9.5 9.5 0 0 0-5.7-.4c-1 .3-2 .6-3 .7-2 .2-3.7 1.2-5.4 2l-1.6.7c-.8.2-1.6.5-2.1 1.2l-.8.5c-.9.2-1.5.8-2 1.4l-.6.9-1.5-2.4-3.3-4.8-2.9-4.3c-1.3-2-2.8-4-3.3-6.5-.3-1.1-.8-2.2-1.3-3.3-.3-.7-1-1.4-1-2.1-.5-2-1.3-4-2-6l-2-4.8-1.8-4.4 6.6-2.6c2.4-.8 4.8-1.6 7.1-2.7l1.3-.4 3.2-.8c.7-.2 1.5-.6 2.3-.6 2 0 3.4-1.3 3.2-3.3-.1-1.4-1-2-2.3-1.5l-1.7.4c-1.2.3-2.6.3-3.7.8l-3 .9-.6.2-4.4 1.8-2.2.9-2.8 1-4.8 1.9a12 12 0 0 0-3-4.5c-1-1-2.4-1.5-3.8-1.3-1.2.2-2.2.8-2.7 2.1-.9 2.3-1 4.6-.6 7 .1 1.1 0 1.5-1.1 1.8-2 .7-3.7 1.6-5.3 2.8-.5.4-1 .6-1.6.8l-2 1-5.9 3.5c-1.2.7-2.5 1.2-3.5 2.3-.5.5-1.1 1-1.8 1.2-1 .3-1.7 1-2.5 1.6-.8.6-1.2.6-1.8 0-.8-.9-2-1.2-3-1.3-1.4 0-2.9 0-4.2.7-1 .5-1.6 1.2-2.3 2a4 4 0 0 0-1 3.2 10 10 0 0 0 1 3.8l-3 2.3-4.5 3.7-8.3 7-3.4 3.2c-1.6 1.4-3.2 2.7-4.5 4.3-.7.9-1.7 1.5-2.4 2.3-1 1.2-2 2.4-3.1 3.4-1.6 1.3-2.9 3-4.2 4.5a574.3 574.3 0 0 0-10.1 13l-3 4.1-2.3 3.5c-.6 1-1.1 2.2-2 3.3-1.3 1.6-2.3 3.5-3.4 5.3l-4.1 7.6a131.8 131.8 0 0 0-7 14.8A172 172 0 0 0 40 132l-3.3 8.8-1.6 4.4-1.8 5.7-2 6.6c-.6 2.3-.6 4.8-1.6 7v1l-.2 1.4-1.8 8.3c-.6 3-.8 6-1.7 9-.7 2.9-1 5.9-1.7 8.8-.6 3-1 6.2-1.4 9.3-.2.7-.2 1.5-.3 2.2-.5 2-1 4.1-1 6.3 0 1.2 0 2.4-.2 3.7l-1 8.2-.4 2.7-.8 5a5 5 0 0 0 .8 3c.3.5.8.8 1.5.8s1-.5 1.3-1l.4-1.8.3-2.6 1-6.9c.3-3 .4-6.2.8-9.3.3-2.9.3-5.8 1.2-8.6.4-1.3.4-2.7.6-4l2.1-11.6 1.1-5.9 2-9.9c.3-2 .4-4.1 1.1-6.1.2-.4.1-.9.2-1.3 0-.5 0-.9.2-1.3l2.6-9.8c.8-3.3 2-6.4 3.1-9.5l2-5.3 3.2-8.6.8-1.7c1-2.5 2-5 3.2-7.5 1-2.4 2.3-4.7 3.5-7l1.8-3.6c1.5-3 3.3-5.9 5-8.7.5-.8 1.1-1.6 1.4-2.5.3-1 1-1.7 1.6-2.5l.8-1 5.7-8.5.5-.8 2.8-3.4 3.5-4.3 3-3.8.7-.7 2.6-2.8c.7-.9 1.4-1.8 2.3-2.5l1-1c.6-.7 1.1-1.4 1.8-2l3.4-3.1 1.7-1.6 4-3.8 8.1-6.8 4.4-3.6c1.1-1 2.3-1.9 3.6-2.7.2-.2.5-.2.7-.2 1.3.2 2.5.5 3.8.4h1.4c.8 1 1.6 2.1 2.8 2.9.8.5 1.5 1 2.2 1.7 1.4 1.2 2.8 2.2 4.4 3l1.6.8 5.3 3c3.4 1.9 7 3.3 10.8 3.9.6 0 1.2.2 1.7.4a18.2 18.2 0 0 0 6.3.9l.3.5c.6 1 1 2 1.6 2.8.5.6 1 1.2 1.2 2 .7 1.9 1.6 3.7 2.7 5.4.4.5.5 1 .5 1.6-.2 5-.2 9.8-.7 14.7l-.3 3c-.7 4.4-1.3 8.8-1.6 13.3-.1 1.6-.2 3.3 0 5 .2 1.9.9 3.7 2.7 4.9l5.4 3.4 2.4 1c1 .4 2.3.1 2.6-.6.5-1.3.8-2.6.2-3.9-.6-1.3-1-2.8-2-4a1 1 0 0 1-.3-.8l.3-2.4 1.2-6c.7-3.9 1.1-7.9 1.7-11.9.3-2.8.3-5.6.8-8.4l.1-2c.1-1.9 0-3.7.2-5.6 0-.5 0-1-.2-1.5 1.4.1 2.6-.4 3.7-1.1 1.2-.7 5.7-3.9 7-4.5 1.2-.6 2.3-1.3 3.7-.8 1 .3 1.3.5 1.2 1.5l-.7 4-.5 2.4-2.7 8a13 13 0 0 0-.5 5c.2 2.3 2.3 3.7 4.1 4.1 3.3.8 6.8 1 10.1.4 1.8-.4 3-2.1 2.7-3.8Zm-88.1-48.8c.5-.6 1.3-.6 2-1-.8 1.4-1 1.5-2 1ZM146.8 15c1.4-.2 2.2.4 2.8 1.9l-2.8 1.2v-3Zm-22.1 20.2 3.5-2 5.7-3.3 1.8-1.2c.8-.6 1.7-1 2.7-1.5 1-.4 2.1-.9 3-1.5 1.1-.9 2.5-1.2 3.7-1.9l.7-.4c2 4 4 7.9 5.8 12h-2.1c-1.7-.3-3.1 0-4.3 1.3l-2.2-2-.4-.3c-1.4-.3-2.6-1-4.2-.8-1.1.1-2.2 0-3.1.8a6.4 6.4 0 0 0-2.4 4 6 6 0 0 0 .8 4.4l1.9 2.2-1.2-.4L132 43l-4-2-2.2-1.4-2-1.3c-.6-.4-1-.9-1.5-1.4l2.5-2Zm29.4 8.7v.5c0 .2-.2.6-.5.8-.5.6-1 1.2-1.7 1.6-.4.3-.8.5-1.4.2-.4-.3-1-.4-1.4-.6-.3-.1-.6-.3-.7-.5-1-1.7-1.4-3.4 0-4.9l.6-.3c2-.5 4.6 1.2 5.1 3.2Zm-9.2 4.1c-1.3.1-6.4-1.6-7.2-2.3h3.6c.4 0 .7-.2 1-.4l1.3-.8c.5 1.2 1 2.4 1.3 3.5Zm-23.8-5.2c-.5-.1-.8-.5-1.2-.6-1-.2-1.5-1-2-1.8.3-.5.6-.6 1-.3.7.5 1.3 1 1.8 1.7.4.7 1.2 1.1 1.8 1.7-.7.2-1-.5-1.4-.7Zm36.8 19.6c-.8-1.8-2-3.4-3-5a2 2 0 0 0-2-1c-.6.1-1.2 0-1.9-.2l-3-.4c-.9-.2-1.9-.1-2.8-.4a64 64 0 0 1-7.8-2.8l-3.7-1.5s-.2 0-.3-.2c-1.2-1-2.6-1.7-4-2.3-.6-.2-1.1-.7-1.6-1l-4-2.8c-.5-.3-1-.6-1.2-1.2.6.3 1.2.5 1.7.9l2.6 1.3 5.5 3c2.3 1.1 4.5 2.2 6.9 3 2 .7 4 1.4 6 1.6.7 0 1.4.5 2 .8 1.1.4 2.1.5 3.2.3 1-.2 1.5-.7 1.7-1.5.3-1 .7-1.6 1.9-1.7.3 0 .7-.5 1-.8a9 9 0 0 0 3-5.4v-3c.2-2-.3-3.6-1.3-5.2-.9-1.4-1.4-3-2.2-4.4l-4.2-8.4c-.4-.7-.6-1.5-.9-2.2 1.5-.9 2.3-.6 3 1l2.6 6.4 1.3 4 1.5 3 .5 1.2 2.5 7.7c.5 1.2 1.3 2.2 2 3.2l2.9 4.2 2.6 3.8c.7 1 1.1 2 1.7 3-2.8 3-6 5.6-9.5 7.9l-.6-1c-.7-1.3-1.5-2.5-2.1-3.9ZM191.6 82c.2 1.3.3 2.7 1.5 4-2.4-.4-4.5-.4-6.7-1.2l.5-2.4 1.5-4.4c.5-1.3.7-2.7 1.2-4 .8-2 1.2-4.3 1.4-6.4.1-.6 0-1.3-.1-2a33 33 0 0 0-1.8-3.8c-1-1.6-3.2-2.4-5-1.6l-.8.2-1.8.4-4.1 2.4c-1.3.7-5.7 3.9-6.4 5.2-.3.5-.6 1-.8 1.7-.5 0-1 0-1.3.6-.3.5-.6 1.1-.6 1.8l-.5 7v2.3L167 88l-1 7.5-1 5.9-1.5 6.5c-.3 1.7 0 3.2 1.2 4.5l.2.5-.2.2-2.9-1.8c-1.1-.6-1.5-1.6-1.4-2.9l.8-9.5c.4-3.5.8-6.9 1-10.3.2-2 0-4 .4-5.9.3-1.7.2-3.4.2-5.2l.1-3.6V72l4.7-3.6 1-1 3.4-2.9 2.3-2c.9-.7 1.6-1.5 2.9-1.6l.4-.3c.6-.6 1.2-1 2-1l.7-.4c1-1.2 2.7-1.2 4-1.8.9-.5 2-.4 2.9-1.1.2-.2.5-.2.8-.2l3.5-.4c2-.2 3.4.4 3.8 2 .3 1.2.3 2.4.1 3.5-.4 2.6-1 5.1-1.5 7.7l-.8 4.2-1.5 6.9v2ZM194.9 191.7c1-.4 2 .1 2 1.3s-.3 2.4-.5 3.6l-.6 2.6a5 5 0 0 1-2.5 3.3c-1 .7-2.3 1.2-3.5 1.7l-1.2.6c1.6 1 2.5 2.4 4.3 3 1.7.6 3.4 1.3 5.1 1.7 1.2.3 2.3.4 3.4.2.3-.6.1-1 0-1.5-.6-2.1-1.6-4-3.3-5.3-.6-.4-1.2-.7-1.3-1.5-.3-1.1.1-2.4 1-3 1-.6 1.7-1 3 0 1.4 1 2.5 2.2 3.3 3.6 1 1.6 1.5 3.4 1.7 5.1.2 1.5.3 3.1-.6 4.4a7 7 0 0 1-6.1 3.2c-1.8 0-3.6-.3-5.4-.8l-3-1.1c-.4 2.5-2 4-4.1 4.5-2.2.5-4.2 0-6-1.4-3.9 2-7.5 1.7-10.8-1.4l-1.3 1.3c-1.3 1-2.5 1.7-4.3 1.5-1.7-.2-3-.7-4.3-1.7-1.3-1-2.5-2.2-3.8-3.4l-.2.1c-1.3 1.1-2.6 2.4-4 3.4-.8.6-1.8 1-2.7 1.3a24 24 0 0 1-7.2.9 52 52 0 0 1-5.5-.5c-.8-.1-1.6-.4-2.5-.4h-.3c-1.8-.8-3.8-1-5.4-2l-4-2.1c-.1.3-.4.6-.7.9l-2.4 2.1-3.1 2.3c-1.3 1-2.8 1.1-4.4 1.2h-.7c-.6 0-1 .3-1.7.1-1.5-.5-3-.7-4.1-2-.5-.5-.8-1.1-1.2-1.8l-2.2 1.5a7.6 7.6 0 0 1-4.5 2c-.7 0-1.4.3-2 .2-2.3-.4-4-1.9-4.8-4.1L92 214c-.8.8-1.7 1.4-2.3 2.3-1.2 1.6-2.8 2.7-4.2 4a8.7 8.7 0 0 1-5.5 2.4c-1.8.1-3-.7-3.6-2.5l-.3-1c-.6.3-1 .5-1.6.6-1.2.4-2.5 1-3.7 1.2-2.4.6-4-.6-4.4-3l-3.4 1c-.9.2-1.8.4-2.6-.1l-.8-.1c-2.6-.4-3.2-2-3.2-3.8 0-.6 0-1.3.2-1.9a9 9 0 0 1 3.5-5c1-.5 1.8-1.3 2.8-1.9a13 13 0 0 1 5.7-1.3c.6 0 1.1.3 1.4.9.5.9 0 1.7-1 1.8-1.2.1-2.4.4-3.4 1-2 1.4-3.9 2.7-5 5l.6.7h.5l1-.3c1.5-.2 2.7-.8 4-1.1 1.5-.4 2.7-1.1 4-1.7 1.2-.4 2 .2 2.2 1.4.1.9 0 1.6-.5 2.3l-.4.8c1.2 0 2-.6 2.8-1 1.2-.6 2.4-1 3.7-1.3 1-.2 1.6.2 1.7 1.3v2.5c1 .8 1.9.4 2.8 0a12 12 0 0 0 3.1-2.4c1.9-1.8 3.3-3.9 5-5.7.2-.3.5-.4.8-.5l-.4-.4c-1 .1-2 0-3-.4-.1-.1-.5 0-.7.1-.8.5-1.5.5-2.4.4h-4.2c-1.4-.1-2.8-.2-4.3-.5-1.3-.2-2.6-.4-3.8-1a8 8 0 0 1-3.2-2.7c-.4-.5-.6-1.2-.7-2 0-1-.2-2.2 0-3.4.3-.8.5-1.7 1.3-2.3m52.1 10.8c-.9.2-1.8.2-2.7 0h-.5c-1.3.1-2.5.3-3.8.3h-8.9c-1.2.1-2.5.1-3.7-.1h-.7c-1 .2-2 .4-3 .3l-1.8.1c-.3 0-.6.1-.8 0-1-.3-1.8 0-2.6.4l.3 3c.9 1 1.9 1.9 3 2.6.7.5 1.5.7 2.2.5 1.5-.3 2.9-1 4-2l2.6-2.4 1-1c1-.5 1.9 0 2 1 .2.5.2 1.2.3 1.8 0 .3 0 .7.3.8.8 1 1.7 2 3.2 1.9l.7.1 1.2.1c2-.1 3.3-1.8 5-2.4l.2-.2c1.1-1.4 2.2-2.9 2.5-4.8Zm61.6-2.2-2.9.3-9.5.3c-3.2 0-6.3-.2-9.5-.1l-1.8-.1h-1.3c-.3 1.8-.2 2 .8 3.3l1.5 1.9.5.5 2 1c1.6.8 2.8.3 3.4-1.4.4-1 .8-2 1.8-2.5.7-.4 1.5-.3 2 .4l.7 1.1c.4.5.8 1.1 1.3 1.3 1 .4 1.8.8 2.9 1 1.5.3 2.7.1 3.9-.8.7-.6 1.5-.6 2.3-.2l3 1.2c.3.2.7.2 1 .3a4 4 0 0 0-1-3.5c-.4-.6-1-1.3-1.2-2-.1-.5.1-1.2.1-2Zm-28.2.4-7.3.5-6.8.4-3.4.3-6.8.3h-2.1c-1 0-1.9.2-2.9.4l2.3 2.4.9.4c1.1.4 2.3.6 3.4 1.1 1.3.6 2.7.9 4 1.1a34.5 34.5 0 0 0 11.7-.2c1-.2 2.1-.4 2.8-1.3 1.5-1.6 3.1-3.2 4.2-5.4ZM128.1 165.5c0 2-2 3.1-3.7 2.3l-4.1-2c-1.3-.6-1.7-1.4-1.2-2.8l.5-1c.7-1 1.7-1.6 2.9-1 .8.6 1.7 1 2.6 1.5l1.5.7c1 .2 1.5.8 1.4 1.9l.1.4Z"/><path fill="#290852" d="m135.6 145.2-3.4-.5H131c-1.3 0-2-1-1.7-2.1a3.3 3.3 0 0 1 3.5-2.6l3.7.1c1.6.2 2.2 1.2 2.2 3 0 1.2-1.4 2.3-2.6 2h-.5ZM92.4 163.4c0 1-.9 2.2-2 2.6a5 5 0 0 1-1 .3c-.7 0-1.3.3-1.9 1-.5.5-1.2.9-2 .4-.8-.4-1.2-1-1-2 .2-1.8 1-2.8 2.7-3.5l1.8-.7c.7-.2 1.4-.5 2.1-.5.8 0 1 .4 1.2 1.1l.1 1v.3ZM137.3 154.2c.3 1.8-1.7 3.3-3.5 2.4l-2.4-1c-.8-.5-1.7-.9-1.7-2 0-1 .5-2 1.4-2.6 1-.7 2.1-.5 3.2-.2l1 .5c1.9.8 2 1 2 3ZM119.6 142c0 1.5-1 2.1-1.8 2.5-2 1-4 1.7-6.1 2.5-1.2.5-2.2-.5-2-1.7.3-1 .8-2 1.8-2.4 1.8-.7 3.5-1.5 5.5-1.6l1.3-.2c1 0 1.3.2 1.3 1ZM98.5 151.3c.2 1.1-.4 2-1.4 2.6-.9.5-1.7.6-2.4 0-.4-.4-.8-.5-1.3-.3-.7.2-1.3 0-1.8-.6-.4-.5-.5-1.2-.2-1.9.4-.9.8-1.7 1.7-2.2.7-.3 1.3-.5 2-.3s1.4.2 2 .5c1.3.5 1.5.8 1.4 2.2ZM113.7 156.9a3 3 0 0 1-2.2 3l-3 1c-.5.2-1 .4-1.5 0-.6-.5-.8-1-.6-1.7.1-.6.4-1.2.8-1.7a5.8 5.8 0 0 1 4.9-2.6c1.2 0 1.5.5 1.6 2ZM162.1 162.7c.5 0 1 .2 1.4.3.5.2.9.6 1 1 .3 2.2-.9 4-3.2 3.8h-1.6c-.6.1-1.2.2-1.6-.4-.4-.6-.4-1.2-.3-1.8.6-1.6 2.5-2.9 4.3-3ZM176.2 167.2c.6 0 1.2 0 1.9.2 1.2.2 1.6.9 1.3 2-.5 2-1.8 2.8-3.8 2.5l-1.9-.3c-1.4-.3-1.9-1.5-1-2.7.8-1.2 2-1.9 3.5-1.7ZM173 158.8c-1.4.3-2.4-1-1.9-2.3 1-2 2.9-2.8 4.7-2.2l.9.4c.8.3.9.6.9 1.5-.1 1.5-.7 2.6-2.2 3-.5.2-1 .4-1.6-.2-.3-.2-.7-.2-.9-.2ZM157.2 143.6c0 1.4-.6 2-1.9 2.3l-1 .1c-1.2.3-2-.9-1.7-2 .2-.8.7-1.6 1.5-2.2.6-.4 1.4-.7 2.2-.2.8.4 1 1.1 1 2ZM101 174c0 1-1 2.2-2.1 2.5-.6.1-1-.2-1.4-.5-1.5-1.6-.4-4 1-4.6 1-.3 2.3.5 2.4 1.5l.1 1ZM148.3 165.7c0-1.3 1.7-3 3-3.1.9-.1 1.5.6 1.5 1.5-.1 1.5-.7 2.6-2.2 3.2-1.3.4-2.3-.3-2.3-1.6ZM166.8 153.6c0 1-.4 2-1.6 2.6-.7.2-1.2.5-1.9 0-.6-.7-.9-1.4-.6-2.2.4-1 1.2-1.9 2.3-2.2 1.2-.3 1.9.3 1.8 1.8ZM150 152.8c-.1 1.7-1 2.6-2.6 2.9-1.2.2-2.2-1-1.7-2.1.4-1 1-1.9 2.1-2.3 1.3-.4 2.2.2 2.1 1.5Z"/><defs><linearGradient id="a" x1="58.5" x2="207.8" y1="160.8" y2="160.8" gradientUnits="userSpaceOnUse"><stop stop-color="#F60"/><stop offset="1" stop-color="#F4AC2B"/></linearGradient><linearGradient id="b" x1="59.6" x2="209.4" y1="225.9" y2="225.9" gradientUnits="userSpaceOnUse"><stop stop-color="#F60"/><stop offset="1" stop-color="#F4AC2B"/></linearGradient></defs></svg>