<svg xmlns="http://www.w3.org/2000/svg" width="115" height="115" fill="none"><path fill="#290852" d="M72.7 37.1a1 1 0 0 1-.6-.5l-.6-.1-1-.2c-1.1-.2-2.1-.5-3.2-.6-1.1-.2-2.3-.3-3.4-.6l-3.3-.2-2.5.1h-2.3a22 22 0 0 0-3.4.7l-.4.1-1.2.4a21.7 21.7 0 0 0-12 10l-.5 1.5-.8 1.3-.5 2-.8 3.1a37 37 0 0 0 0 8.7c.4 1.6.3 3.3.7 4.8.2 1.4 1.1 2.6 1.6 4l.3.3.3-.2.6-.3.1-.5.1-.2c0-1-.5-2.9-.5-3.3l-.7-4.6v-.1c-.9-7.7.2-14 5.6-19.4A20 20 0 0 1 60 37.5c2.5-.1 5 0 7.3.7h1.4l1.5.6h.6l1.4.1c.3-.1.5-.4.6-.8.2-.3.1-.7 0-1ZM43.1 85.2l-.4-1.8-.2-.1c.1 0 .1.2 0 0l-.3-.2H41.2v.1l-.1.1v.2l-.2.3v.6c1.8 7.9 2.8 16.1-1.3 22.9v.2c0 .4.2.7.3 1l.1.2h1l.1-.1.1-.1.3-.2.5-.8c3.2-6 3-12.9 1.8-19.5l-.8-2.8ZM109.8 39.2c-.1-.3-.4-.4-.7-.6-.3 0-.5 0-.8.2-7 4.2-15.3 3-23.4 1.2-.3-.1-.5 0-.8 0-.2.2-.4.5-.4.8 0 .3 0 .7.3 1 .1.2.3.2.5.3 4.1 1 8.4 1.7 12.5 1.7a24 24 0 0 0 12.5-3.1c.5-.4.6-1 .3-1.5Z"/><path fill="#290852" d="M81.8 48.5c-.8-1.3-1-2.9-1.3-4.4l-1-5.3-.5-2-.3-1v-.6l-.7-2.5c-1.8-8-2.9-16.4 1.2-23.2l.2-.3v-.1l-.2-.4v-.1l-.1-.1-.2-.2-.4-.2H77.8l-.1.2-.2.4-.7.9v.1a21 21 0 0 0-.9 2c-.7 2-2 4-2 6.2 0 .4 0 .8-.2 1-.3 4.8.6 9.7 1.7 14.4v.3h.1l.7 2.9.2.3.4 2.2.3.9.2 1c.4 1 1 2 1 3.3v.6l.3 1.5v.2c2.4 10.7 2.8 19.2-3.4 26-.4.8-1.1 1.4-1.7 2-.4.4-.9.7-1.4.8a19 19 0 0 1-5.6 2.8c0 .2-.3.2-.5.3a47.4 47.4 0 0 1-18.6-1L41 76l-6.5-1.7L28 73h-.9c-3-.3-5.9-.4-8.7 0l-2.3.4h-.6c-.8.4-1.7.6-2.7.9-1.5.4-2.7 1.2-4 2-.2.3-.3.6-.2 1 0 .3.3.7.6.8.5.2.9-.2 1.3-.4l1.5-.5H12.4l1.2-.4a35 35 0 0 1 20.2.2h.1c2.2.6 4.3 1 6.5 1.7l6.5 1.6C52 81.4 56 82 59.5 82c7 0 12.5-2.2 17-6.6 7.5-7.7 7.2-17.4 5.3-27Z"/><path fill="url(#a)" d="M70.9 68.3v-.5h-.1l-.3-.5-19.8-19.7-.5-.2h-1.8.1s-.2 0-.3.2l-.1.2v.1l-.2.2s-.1.3 0 .4v.4l.2.3.2.2.4.5.2.2 19.4 19.4 1 .3h.9l.1-.2h.2l.2-.3.1-.3.1-.2v-.5Z"/><path fill="url(#b)" d="m72.6 60-.1-.4-.1-.2-.1-.3-3.9-3.9-.4-.3-3-2.6-2.8-3-.1-.3-1-.9-.9-.9c-.3-.2-.5-.4-.6-.7l-.4-.4-.3-.2-.5-.4-.9-.2h-.7s-.2.1-.2 0c0 .2-.1.2-.3.4l-.2 1v.2c.9.8 1.6 1.8 2.4 2.7l1.2 1.3.9 1 1.9 1.8 3.9 3.6c1 .8 1.9 1.8 2.5 2.8l.3.3 1 .8s.2 0 .2.2H71l1 .1.3-.1c0-.1 0-.2.2-.3v-1Z"/><path fill="url(#c)" d="M62.5 70.4v-.3l-.2-.3c0-.3-.2-.5-.3-.6l-.4-.5v-.1h-.1c0-.2-.2-.3-.3-.3l-.1-.2-1.2-1-2.3-2.4c-.9-.8-1.8-1.5-2.6-2.4l-.7-.8-1.5-1.4-1.1-1.3-.6-.6-.3-.3-.1-.2s.1.2 0 0h-.1l-.5-.5V57l-.2-.1-.1-.1-.6-.6c-.3-.1-.4-.4-.6-.6l-.2-.3h-.2c.1 0 .1 0 0 0v-.1H47c.3 0 0 0 0 0h-.2l-.3.2c.3-.2 0 0 0 0l-.1.1-.2.2v.2l-.1.2v.5l.1.3.2.2.2.4.5.7L60 71.1l.7.2a7.2 7.2 0 0 0 .7.2h.6l.2-.3.1-.1.1-.2v-.1l.1-.1v-.4.1Z"/><path fill="url(#d)" d="m82 22.3.1.4.2.6 1.8 2 1.1 1.2.9.9 1.8 1.6 3.5 3.3a15.6 15.6 0 0 1 2.7 3l.9.7.2.1h.4l.1.1H97l.2-.3V34.3l-.2-.3-3.5-3.5-.4-.3a62.5 62.5 0 0 1-5.4-5.2v-.2h-.1l-1-.9-.8-.8a1 1 0 0 1-.5-.7c-.2 0-.3-.3-.4-.4l-.3-.2c-.1-.2-.3-.2-.4-.3l-.9-.3H82.6l-.1.1a1 1 0 0 0-.3.3v.2l-.1.5Z"/><path fill="url(#e)" d="M86 18v.2c.1.3.3.4.4.5l1 1.1.3.5.4.4 1.1 1.2.9.9 1.8 1.6 3.6 3.3L97 29l1 1 .3.2.1.1c-.3-.2-.3-.2 0 0l.4.3.6.2H100.5l.1-.1.3-.1v-.1l.1-.2v-.5l-.1-.3v-.1l-.2-.3s-.2-.3 0-.1l-.4-.4-2.9-2.8-.3-.2-2.8-2.4-2.8-2.7v-.2h-.1l-1-.9-.8-.8a.9.9 0 0 1-.5-.7l-.4-.4-.3-.2c-.1-.2-.3-.2-.4-.3l-.9-.2H86.5l-.1.1a1 1 0 0 0-.3.3 1 1 0 0 0-.1.6v.1Z"/><path fill="url(#f)" d="M17.1 86.5v.4c.1.3.3.4.3.7l2 2 1.1 1 1 .9 1.8 1.6 3.7 3.1c.9.7 1.8 1.6 2.5 2.6l.2.2 1 .6.2.2h1.6l.1-.2.2-.2v-1.2l-.1-.3-.2-.2-3.8-3.4-.3-.2-2.8-2.3-2.8-2.7-.1-.1-.1-.1-1-.8-.8-.8c-.3 0-.5-.3-.6-.6l-.4-.4-.3-.2c-.1-.2-.3-.3-.5-.3l-.8-.2H17.6s-.2.1-.2 0a1 1 0 0 0-.2.4v.5Z"/><path fill="url(#g)" d="M36.4 93.8v-.3l-.2-.3c-1-1.1-2.2-2.1-3.3-3l-2-1.8-.9-.9-.1-.1-3.2-3.2-2.1-2c-.7-.6-1.2-1.1-2-1.5H21.8a1 1 0 0 0-.3.3 1 1 0 0 0-.1.6v.2l.1.3h.1c0 .2.2.4.3.5l1 1.1.4.5.3.4 1.2 1.2.8.9 1.8 1.6 3.6 3.2 1.4 1.4c.5.3.8.7 1.1 1l.2.2h.2c-.3-.1-.3-.1 0 .1.1.2.2.2.4.3l.5.1.1.1H36l.2-.1.2-.1.1-.1V93.8Z"/><defs><linearGradient id="a" x1="47.8" x2="70.9" y1="58.5" y2="58.5" gradientUnits="userSpaceOnUse"><stop stop-color="#F60"/><stop offset="1" stop-color="#F5AD2B"/></linearGradient><linearGradient id="b" x1="56.1" x2="72.6" y1="53.3" y2="53.3" gradientUnits="userSpaceOnUse"><stop stop-color="#F60"/><stop offset="1" stop-color="#F5AD2B"/></linearGradient><linearGradient id="c" x1="46.1" x2="62.5" y1="63.4" y2="63.4" gradientUnits="userSpaceOnUse"><stop stop-color="#F60"/><stop offset="1" stop-color="#F5AD2B"/></linearGradient><linearGradient id="d" x1="81.9" x2="97.1" y1="28.8" y2="28.8" gradientUnits="userSpaceOnUse"><stop stop-color="#F60"/><stop offset="1" stop-color="#F5AD2B"/></linearGradient><linearGradient id="e" x1="85.9" x2="101.2" y1="23.9" y2="23.6" gradientUnits="userSpaceOnUse"><stop stop-color="#F60"/><stop offset="1" stop-color="#F5AD2B"/></linearGradient><linearGradient id="f" x1="17.3" x2="32.5" y1="93" y2="92.3" gradientUnits="userSpaceOnUse"><stop stop-color="#F60"/><stop offset="1" stop-color="#F5AD2B"/></linearGradient><linearGradient id="g" x1="21.3" x2="36.5" y1="87.8" y2="87.5" gradientUnits="userSpaceOnUse"><stop stop-color="#F60"/><stop offset="1" stop-color="#F5AD2B"/></linearGradient></defs></svg>