<?xml version="1.0" encoding="UTF-8"?>
<svg width="50px" height="50px" viewBox="0 0 50 50" version="1.1" xmlns="http://www.w3.org/2000/svg" xmlns:xlink="http://www.w3.org/1999/xlink">
    <!-- Generator: sketchtool 52.3 (67297) - http://www.bohemiancoding.com/sketch -->
    <title>775B5FEA-76F7-4355-BE6F-83DEC8C2430B</title>
    <desc>Created with sketchtool.</desc>
    <g id="UI" stroke="none" stroke-width="1" fill="none" fill-rule="evenodd" stroke-linejoin="round">
        <g id="Home-D" transform="translate(-252.000000, -7280.000000)" stroke="#FFFFFF">
            <g id="footer" transform="translate(0.000000, 6860.000000)">
                <g id="social" transform="translate(97.000000, 421.000000)">
                    <g id="instagram-icon" transform="translate(156.000000, 0.000000)">
                        <path d="M48,24 C48,37.2542609 37.2563478,48 24,48 C10.7436522,48 0,37.2542609 0,24 C0,10.7436522 10.7436522,0 24,0 C37.2563478,0 48,10.7436522 48,24 L48,24 Z" id="Stroke-696" opacity="0.300000012" stroke-linecap="round"></path>
                        <path d="M30.4107692,34 L17.5892308,34 C15.6076923,34 14,32.3923077 14,30.4092308 L14,17.5876923 C14,15.6076923 15.6076923,14 17.5892308,14 L30.4107692,14 C32.3923077,14 34,15.6076923 34,17.5876923 L34,30.4092308 C34,32.3923077 32.3923077,34 30.4107692,34 Z M29.2415027,23.7674419 C29.2415027,20.7439356 26.7891234,18.293381 23.7674419,18.293381 C20.7439356,18.293381 18.293381,20.7439356 18.293381,23.7674419 C18.293381,26.7891234 20.7439356,29.2415027 23.7674419,29.2415027 C26.7891234,29.2415027 29.2415027,26.7891234 29.2415027,23.7674419 Z M31.8175313,17.7567084 C31.8175313,16.6303041 30.9038998,15.7173524 29.7781753,15.7173524 C28.651771,15.7173524 27.7388193,16.6303041 27.7388193,17.7567084 C27.7388193,18.8824329 28.651771,19.7960644 29.7781753,19.7960644 C30.9038998,19.7960644 31.8175313,18.8824329 31.8175313,17.7567084 Z" id="Combined-Shape" fill="#FFFFFF"></path>
                    </g>
                </g>
            </g>
        </g>
    </g>
</svg>