<svg xmlns="http://www.w3.org/2000/svg" width="20" height="20" viewBox="0 0 20 20" fill="none">
<circle cx="10" cy="10" r="10" fill="#290852"/>
<path d="M8.69388 12.4276C8.69388 11.9972 8.75918 11.6326 8.8898 11.3338C9.03129 11.023 9.20544 10.754 9.41224 10.5269C9.61905 10.2998 9.84218 10.0966 10.0816 9.91724C10.3211 9.73793 10.5442 9.55862 10.751 9.37931C10.9578 9.18805 11.1265 8.97885 11.2571 8.75172C11.3986 8.5246 11.4694 8.25563 11.4694 7.94483C11.4694 7.58621 11.3388 7.2754 11.0776 7.01241C10.8163 6.73747 10.4571 6.6 10 6.6C9.60816 6.6 9.28707 6.6777 9.03673 6.8331C8.78639 6.97655 8.58503 7.13793 8.43265 7.31724C8.2585 7.53241 8.12789 7.77149 8.04082 8.03448L6 7.04828C6.18503 6.48644 6.45714 5.97839 6.81633 5.52414C6.96871 5.33287 7.1483 5.14759 7.3551 4.96828C7.5619 4.78897 7.79592 4.62759 8.05714 4.48414C8.32925 4.34069 8.62857 4.22713 8.9551 4.14345C9.29252 4.04782 9.66803 4 10.0816 4C10.6694 4 11.2027 4.10161 11.6816 4.30483C12.1714 4.49609 12.585 4.75908 12.9224 5.09379C13.2707 5.41655 13.5374 5.79908 13.7224 6.24138C13.9075 6.67172 14 7.12 14 7.58621C14 8.13609 13.9238 8.60828 13.7714 9.00276C13.6299 9.38529 13.4503 9.72 13.2327 10.0069C13.015 10.2938 12.781 10.5508 12.5306 10.7779C12.2803 11.0051 12.0463 11.2382 11.8286 11.4772C11.6109 11.7044 11.4258 11.9614 11.2735 12.2483C11.132 12.5232 11.0612 12.852 11.0612 13.2345H8.85714C8.82449 13.1508 8.79728 13.0611 8.77551 12.9655C8.72109 12.7862 8.69388 12.6069 8.69388 12.4276ZM8.53061 15.6552C8.53061 15.2966 8.65578 14.9857 8.90612 14.7228C9.15646 14.4478 9.46667 14.3103 9.83673 14.3103C10.2068 14.3103 10.517 14.4478 10.7673 14.7228C11.0177 14.9857 11.1429 15.2966 11.1429 15.6552C11.1429 16.0138 11.0177 16.3306 10.7673 16.6055C10.517 16.8685 10.2068 17 9.83673 17C9.46667 17 9.15646 16.8685 8.90612 16.6055C8.65578 16.3306 8.53061 16.0138 8.53061 15.6552Z" fill="#ffffff" stroke="#290852" stroke-width="0.7"/>
</svg>