<svg xmlns="http://www.w3.org/2000/svg" width="240" height="240" fill="none"><path fill="#290852" d="M105.6 185c-6.1 8.3-14.8 10.9-23.7 13.6-8.4 2.6-16 6.3-22.5 12.6-2.3 2.3-5.1 4-6.9 6.9-.5.8-1.2 1.3-2.3 1.2-1-.3-1.5-1-1.8-2.3-.4-2.2.2-4.2 1.7-6 6.4-7 14-12.4 22.5-16.6 4.8-2.4 10.2-3.3 15.3-5.1a30.2 30.2 0 0 0 20.3-32c-.2-1.6-1.3-1.9-2.2-2.7a58.2 58.2 0 0 1-18.7-18 16.7 16.7 0 0 1-2.5-9.7c0-.8-.3-1.7.7-1.8.9-.1 1.5.5 1.8 1a8 8 0 0 1 1 2c3.8 11.8 13.5 17.4 23.8 21.9 13.6 6.2 26.8 2.4 39.4-3.6 5.3-2.6 8.7-7 11-12.6 1.6-3.9 2.8-8.1 4.9-11.9.8-1.3 1.5-3.1 3.3-2.5 2.1.6 1.5 2.7 1 4.2a46 46 0 0 1-20 28.5c-2.6 1.5-3.5 2.7-2.1 5.7 3.3 7 7.8 12 15.6 14.4 7 2.3 14.4 4.4 20.4 9.2 5.3 4.4 9.6 9.8 12.4 16.3 1 2.4 1.2 5.1.6 7.8-.3 1-1 2.1-2.4 2.1-1.3 0-2-.9-2.3-2.3-3.4-14.5-14-21.1-27.3-25-.8-.3-1.8-.3-2.5-.8-3.4-2.8-5.3-.6-7.3 2-6.7 8.1-12.2 17-17.6 25.8-2.7 4.3-6.3 5.3-10.2 1.3l-14.4-13.2c-2.8-2.8-6.6-5.7-9-10.5Zm41.6-29.9-1.8.3c-.5.2-1.1.2-1.6.3-9 3.9-18.3 5-27.7 2.3-2.4-.7-3.1 0-3 2.3.3 6.6-.8 13.1-3.9 19-1.2 2.2-.9 3.3 1 4.8 8 5.7 15.3 12 22.4 18.7 1.8 1.6 2.8 1.6 4.2-.2.8-1 1.3-2 2-3.1 4.6-7.8 9.1-15.6 15.3-22.3 1.3-1.5 1.3-2.6-.2-4.1a21 21 0 0 1-6.8-18ZM138.6 44c2.7-2.8 4.7-5.6 8.3-5.9 4.6-.3 7.4 3.1 5.8 7.5-.8 2-2.3 3.1-3.8.7-1.3-2.2-2.3-1.3-3.8-.1l-4.1 3.4c-1.5 1.4-3.2 2.3-5.1 1.7-2.3-.6-2.6-2.6-2.8-4.5l-.5-2.3c-2.5 2.1-3.3 4.8-4.5 7.1-.8 1.6-1.6 3.3-3.9 2.8-2.1-.4-2.5-2-2.7-4l-.8-4.5c-2.7.7-3.3 3.1-4.5 5-.7 1-1 2.2-1.8 3.2-.7 1.2-1.9 2.1-3.4 1.8-1.3-.3-2-1.3-2.4-2.7-.4-1.2-.1-2.8-1.6-3.7-1.8 2.2-2.2 5-3.2 7.5-.6 1.5-1.2 3.3-3.1 3.4-2 .2-2.8-1.5-3.5-3l-.8-1.6c-.6-1.4-1.2-2.7-2.8-2.7-1.6 0-2.7 1-3.4 2.4a33 33 0 0 0-4.4 21c.3 3 .8 6 1 9 .2 1.3.5 3-1.3 3.4-1.7.5-2.5-1-3-2.4a61.6 61.6 0 0 1-1.2-21 29 29 0 0 1 6.3-16.2c4.2-4.8 7.5-4.6 12 .5 1.4-2.7 2.9-5.4 5.3-7 3.1-2.2 5.6-.7 7.4 2.6l3.7-3.9c4-4.6 6.1-4.5 9.5.8l3.7-4.2c3.4-3.6 6.1-3 7.8 1.5.8 1.3 1.2 2.5 1.6 4.3Z"/><path fill="#290852" d="M144.9 130.5c-2.1 1.7-2.4 3.6-3.2 5.4-1 2.3-2.3 4.2-5.2 4-2.8-.1-4.2-1.8-5-4.3-.4-1.7-1.2-3.2-2-5.7-.8 5.1-1.4 9.6-6.7 10.5-7.1 1.3-10.8-3-12.8-9-1.1.4-1.4.9-1.4 1.7 0 1.3-.1 3-1.8 2.7-2-.4-1.8-2.2-1.6-3.7.1-1 .3-2.2.7-3.3.8-2 1.6-4.2 4.2-4.3 2.6-.2 3.6 2 4.5 3.9.6 1.5 1.4 3.2 2.4 4.2 3.2 2.8 6.5 1.5 7.3-2.7.5-2 1-4 2.5-5.4 3-2.7 6.5-1.3 8.4 3.2.6 1.6-.5 4.6 1.9 4.6 2 0 1.8-3 2.6-4.7.3-.5.7-1.3 1.2-1.9 3.8-5.1 5.8-5 9.4.5 1.2 1.8 2.3 3.5 3.9 5 1.4 1.3 1.5 2.9.5 4.4-1.1 1.5-2.6 1.3-4.1.8-3-.8-4-3.5-5.7-5.9ZM67.7 105.5c.7-4.3 1.5-9 6-12a7 7 0 0 1 11 4.9c.2 1.5-.1 2.8-1.3 3.8-1.5 1-2.1-.5-3-1.4-2.3-2.3-5-1.8-6.5 1-1.8 3.8-.4 7.3 1.8 10.3a15 15 0 0 0 7.5 5.4c2.3.5 2.8 2 2.3 4s-1.8 2.4-3.8 2.1c-7.3-.9-14.2-9.3-14-18.1ZM104.4 97.3l.3-1.8c.5-2.5 1.2-5.4 4.2-5.4 3.1.2 3 3.2 3 5.6-.2 2.5 1.6 1.5 2.7 1.6 1.5.2 3.9-1.3 4.4 1.4.4 2.5-1.8 3.3-3.8 3.9-6 2-11.3 0-16.5-2.9-1.4-.7-2.1-2.2-1.2-3.9 1.2-2 2.5-.7 3.8-.1l3.1 1.6ZM147.6 99.7c.5-3.3.5-7.3 4.8-7.6 3.4-.2 3.6 3.1 3.6 5.8.3 0 .6.2.8 0 1.3-.3 2.6-2.8 4.1-.7 1.4 2 0 3.8-1.8 5.1-3.8 3.3-8.2 3.8-13 2.4-2.1-.6-5-1.2-4-4.2 1-3.2 3.4-.3 5.5-.8ZM136.2 106.2c-.6 3.1-.4 6.8-3.6 9.3-2 1.5-3.8 1.7-6 .8-1.2-.6-2.3-1.3-2.1-2.8.2-1.5.8-2.5 2.5-2.7 3.8-.3 4.4-2.6 3.8-5.8-.5-2.7-.8-5.4-1-8.3-.2-1.2.3-2.7 1.6-3 1.5-.3 2.1 1.1 2.5 2.3 1.5 3 2 6.5 2.3 10.2ZM162.2 87.9c-.2 2.8-1.7 3.9-3.6 2.5a33.3 33.3 0 0 1-9.7-10.3c-.7-1.2-1.3-2.8-.1-3.8s2.5 0 3.6 1.1c2.5 2.3 5.3 4.5 7.8 6.9 1.2.9 2 2.3 2 3.6ZM99.2 84.4c-1.1.2-2.2-.1-2.3-1.5-.2-1.3.1-2.7 1.5-3.1 4.2-1.5 8.1-3.8 12.6-4.8 1.2-.3 2.3-.3 2.8 1 .5 1.2.4 2.4-.7 3a29.6 29.6 0 0 1-14 5.4Z"/><path fill="url(#a)" d="M57 56.1c0-5-2.1-6.5-6.9-5.1-7.2 2.3-7.5 2-6-5.5.1-.8.3-1.5.6-2.1.9-2 1.2-4-1-4.9-2.3-.9-3.5 1.3-4.3 2.9a22 22 0 0 0-.7 15.8c.8 2.5 5.3 5 8 4.1 2.6-.8 3 .2 3.7 2.3 1.4 4.2 4.2 6 7.2 4.8 2.3-.8 4.5-2.9 6.6-2.1 2.7 1 1.3 4.4 2 6.8.3 1.5.8 3 2.8 2.8 1.8 0 2.4-1.5 2.4-2.9.1-3.3.6-6.7-.6-10-2.1-6-5.1-7.4-11-4.8-.8.3-1.8 1-2.8.8-.5-1 0-1.9 0-2.9Zm.8 43.8a7.8 7.8 0 0 1 4.8-2.7c3.2-.3 4.4-2.1 4-5.1-.6-3-3.1-4.2-6.3-3.4-2.3.5-4.2 1.6-5.8 3.3-1.5 1.3-2.6 1.8-4.3-.3-1.9-2.8-4.3-2.5-6.3.4-.7 1.4-1.1 2.7-1.6 4.2-.3 1.2-.3 2.9-1.8 3-1.8 0-2.3-1.6-2.9-3.1-.4-1.1 0-2 .2-3 .3-2-.6-3.7-2.5-4.1-2-.4-2.9 1.4-3.3 3-1.7 4.8 1.5 12.6 6 15.2 3.4 1.9 6.7 1 8.6-2.5l1.7-3.3c4.2 1.8 6.6 1.5 9.5-1.6Zm12-69.8c0-7.2-1.4-8.2-8.3-7.2l-1 .2c-2.6.4-3-1-2.8-3.2.2-.8.8-1.6.8-2.3.3-1.7-.3-3.2-1.8-4-1.8-.8-3 .3-3.8 1.7a11.4 11.4 0 0 0-1.9 8.3c.8 5.8 3.3 7.9 9.5 7.6 1.3 0 1.9.3 2.2 1.8 1.6 7.6 3.1 8.5 10.5 6.3 2.1-.6 3.6-.9 4.3 1.7.3 1.1 1.1 2 2.5 2 1.5 0 2-1.1 2.5-2.4 1.5-3.4-.2-6-2.1-8.5-2-2.3-4.2-2.9-7-1.7-1.1.5-2.2.7-3.4.8 0-.3-.1-.8-.3-1Z"/><path fill="url(#b)" d="M189.9 97.5c.4 8.3-4.3 15.9-10.3 17-6.5 1.2-14.6-5.5-14.6-12 0-3.2.3-6.3 1.2-9.3 2.4-7.4 4.8-14.8 7.4-22.3.6-1.6 1.3-3.6 3.4-3.4 2.1 0 2.3 2.1 2.7 3.6 1.5 5 3.9 9.5 6.3 14 2.3 4.2 4 8.4 3.9 12.4Zm-22-57.3c-.5-1.2-1.1-2.4-2.8-2.3-1.4.2-2.2 1.1-2.7 2.5-.6 2.2-2.2 3.9-3.1 6-2.3 5-4.5 10-2.9 15.9 1.1 3.4 3.2 5.7 6.8 6.1 3.6.6 5.3-2 6.6-4.5 1-2.1 2-4.4 1.8-6.4 0-6.4-1.5-11.9-3.8-17.3Z"/><defs><linearGradient id="a" x1="31.7" x2="83.2" y1="60.8" y2="60.8" gradientUnits="userSpaceOnUse"><stop stop-color="#C4E9BF"/><stop offset="1" stop-color="#F1A92B"/></linearGradient><linearGradient id="b" x1="173" x2="173" y1="114.6" y2="38" gradientUnits="userSpaceOnUse"><stop stop-color="#BC97AF"/><stop offset=".3" stop-color="#BFB8B5" stop-opacity=".9"/><stop offset=".6" stop-color="#C2D3BB" stop-opacity=".8"/><stop offset=".8" stop-color="#C3E3BE" stop-opacity=".8"/><stop offset="1" stop-color="#C4E9BF" stop-opacity=".7"/></linearGradient></defs></svg>