<svg width="24" height="24" viewBox="0 0 24 24" fill="none" xmlns="http://www.w3.org/2000/svg">
<path d="M14.9812 14.139L13.3755 15.723C12.5381 15.2182 11.7602 14.6206 11.0565 13.9418C10.3787 13.2369 9.78127 12.4589 9.27525 11.6221L10.8577 10.0163C10.9536 9.919 11.0183 9.79536 11.0437 9.66114C11.0691 9.52692 11.0539 9.38818 11.0002 9.26258L9.35025 5.41661C9.28507 5.26496 9.16757 5.14178 9.01917 5.06951C8.87077 4.99723 8.70134 4.98068 8.54176 5.02286L5.51628 5.82311C5.36519 5.86228 5.23187 5.95157 5.13814 6.07637C5.0444 6.20117 4.9958 6.35409 5.00028 6.5101C5.19279 10.0289 6.65586 13.3583 9.11775 15.8798C11.6397 18.3424 14.97 19.8058 18.4897 19.998C18.6458 20.0032 18.7991 19.955 18.9242 19.8614C19.0492 19.7677 19.1386 19.6341 19.1774 19.4828L19.9769 16.4558C20.0193 16.2963 20.0029 16.1269 19.9308 15.9784C19.8586 15.83 19.7355 15.7125 19.5839 15.6473L15.7372 13.998C15.6115 13.9436 15.4723 13.9279 15.3377 13.953C15.203 13.9781 15.0788 14.0429 14.9812 14.139Z" stroke="white" stroke-width="1.5" stroke-linecap="round" stroke-linejoin="round"/>
</svg>
