<svg xmlns="http://www.w3.org/2000/svg" width="240" height="240" fill="none"><g clip-path="url(#a)"><path fill="url(#b)" d="M185 131.1c-.3.2-.7.4-.9.7L181 136c-.9 1.2-.9 2.6-.5 4 .1.7.6 1 1.3 1.4 2.3.8 4.2-.1 6-1.3l2.2-1.3c-.9 2.1-.1 3.9 1 5.4l4.3-2.2c.4-.2.9-.5 1.3-.9 2.4-2 5.2-3.7 7.5-6 .7-.7 1.7-1.4 2.6-2l.4-.3c.6-1 1.5-1.4 2.6-1.3l1-1.6.4.6 3.8 8.9.8 2.6.7 2 1.3 7.4c.1.5.4 1 .4 1.6.3 2.2.6 4.5.7 6.7v4.3c0 1.8 0 3.6-.2 5.3a101.3 101.3 0 0 1-2.2 13.2c-.5 2-1 4.1-1.9 6-.8 1.7-1 3.7-2 5.4l-2 3.6c-.4 1-.9 1.8-1.4 2.7a66 66 0 0 1-8 11.7 83 83 0 0 1-14.4 13.4l-5 3.2-4.3 2.6a43.7 43.7 0 0 1-8 3.4l-5.7 2c-2.3.8-4.7 1.4-7.2 1.7-1.6.2-3.3.3-5 .7-1.4.4-2.8-.1-4.2.5H146c-.8-.3-1.7-.1-2.5 0h-1l-4.9-.3c-2.3 0-4.6-.3-6.8-1h-.7l-2.7-.6-1.8-.3h-.5L119 235l-1.5-.7c-1-.4-2.1-.7-3-1.2-2-1-4.1-1.8-6-3.4l5-.6 3.5-.6 1.3-.1c.5 0 1-.2 1.4-.3l1.1-.1 3-.6.6-.2c1.3.3 2.6-.2 3.8-.1.8 0 1.3-.1 1.8-.7.3-.4.8-.6 1.4-.8 2.8-.6 5.7-.9 8.7-1l1.7-.2 2.6-.3c1.3 0 2.6-.3 3.9-.5 1-.2 2.2-.2 3.3-.5 1.7-.3 3.4-.8 5.2-1 1.7-.4 3.2-1 4.7-1.9 3.3-2 6.6-4 9.7-6.4l.6-.6c-.6-.3-1.2-.2-1.6 0-.8.3-1.5.7-2.1 1.1-.8.5-1.6.7-2.5.8 0-.5.5-.5.8-.6 1.3-.3 2.3-1 2.6-2.5.1-.8 1-1 1.6-1.3l.5-.1c1.8-.5 2.6-1.4 2.8-3.2.2-.8-.6-1.7-1.6-1.5-1.4.1-2.9 0-4.1 1l-.4.1-6.5 1.3c1-.8 1.6-1.3 2.6-1.5l6.2-1.9c1.1-.3 2-1.6 1.7-3.4l1.2-.9a3 3 0 0 0 1.1-3.2c-.2-.6-1-1-1.8-.7-1.8.7-3.8 1.4-5.4 2.9-.7.7-1.6.5-2.6.2l.6-.5c2-1 4-2 6.2-2.8 1.4-.6 1.8-1.8 2-3 .2-.5-.1-1-.5-1.1l-1.5-.5v-.6c0-1.1-1-1.8-2-1.3l-2.2 1.1c-.6.3-1.1.4-1.7.5-1 .2-1.9.6-2.7 1l-4.1 2.5c-1.5.8-3 1.5-4.8 1.5a23 23 0 0 1-5.8.8l.7-.4 4.4-1.9 4.8-2.2 1.5-.7c1.2-.6 2.5-1.1 3.6-1.8s1.6-2.3 1.2-3.5c-.1-.6-.9-1-1.6-.7-.5 0-1 .2-1.5.4-1.8 1-3.8 1.4-5.7 2l-5.1 1.9-2.9.7c-1.8.6-3.7.7-5.5 1.6-.6.3-1.4.4-2.2.5l-3.7.9-4 .6-5.4.8h-2.8c-1.8 0-3.5-.5-5.3-.3-1.3.1-2.6-.2-4-.3l-8-.9c-1.8-.2-3.6-.6-5.4-1.2-.9-.3-1.7-.7-2.7-.7l-1 .3c-.8.3-1.2.2-1.7-.4l-1.4-1.4-1.8-1.7-.7-.5c-.2-.1-.5-.2-.5-.4-.2-.8-.8-1-1.3-1.5l-1 .2c-1 .1-1.8-.2-2.4-.9a15.8 15.8 0 0 1-3.7-5.3 9 9 0 0 0-2.2-2.8 18 18 0 0 1-5.3-13.3l.3-3.3c.2-1.1.5-2.3.1-3.4v-.8c.7-3.4 1.3-6.8 2.4-10 .6-2 1.1-4 2-5.9 1.3-2.2 2-4.8 3.4-6.9.8-1 1.2-2.4 2-3.5 2.4-3.9 4.7-7.8 8-11 1.1-1.2 2.1-2.6 3.3-3.7 1.3-1.2 2.4-2.6 4-3.5.6-.4 1-1.1 1.7-1.6l6-4.6 1.1-.5 1.6-1 .4-.3c1.5-.3 2.6-1.5 3.9-2.2 1.6-.8 3.1-1.7 5-2.2l1-.6 1.1-.5 1.6-.5c2-.7 4-1.3 5.8-2.1l1.2-.3c1.9 0 3.6-1 5.5-1.2 1.6-.1 3.1-.4 4.7-.7.5-.1 1.1 0 1.6 0l3.5-.3c1.8 0 3.7-.4 5.5 0h.6c2.5-.2 5 .4 7.4.7h.5c1.6-.1 3 .5 4.6.8 2.4.6 4.7 1 7 1.9l4 1.4a33 33 0 0 1 4.3 1.9c1 .6 2.2.8 3 1.8l.7.3c1.5.3 2.4 1.5 4 2l-1 .7c-1.2.6-2 1.6-2.7 2.7-.8 1.2-1.7 2.2-2.6 3.3l-3.2 3.6-2 1.7c-.3.3-.8.5-1 1-1.1 1.7-2.8 3-4.1 4.5-.8.8-1.5 1.5-2.1 2.4-.8 1-.4 2.1.2 3.1.6 1 1.5 1.3 2.5 1.2 1.5-.2 2.7-.8 3.8-1.9l6.1-6.2 2.4-2.7c1-.9 2-1.7 2.8-2.7l5.3-6.5.5-.5 1.4 1.2-2.2 2.3-3.3 3.5-4.1 3.7a385.6 385.6 0 0 0-5.4 5.4c-.5.8-1.1 1.4-1.9 2-1 1-1.7 2.1-2 3.5l-.8 3.3a9 9 0 0 0-.1 2.1c0 .7.5 1.3 1 1.7.8.5 1.7.3 2.2-.6.6-1 1.2-1.4 2.1-2l4.1-3.1c.4-.2.7-.5 1.1-.4Z"/><path fill="url(#c)" d="M186.6 129a139 139 0 0 1 13.6-13.5c.3.6-.1.9-.4 1.1l-2.4 2.5c-.5.4-.9 1-1.3 1.5-.5.4-1 .7-1.3 1.2l-2 2a25.3 25.3 0 0 1-4.4 3.8l-.5.6-1.1 1-.2-.2Z"/><path fill="url(#d)" d="M150.1 204.3c.6-.2 1.2-.6 1.8-.7 2.4-.3 4.6-1.1 6.9-1.8.6-.2 1.2-.6 1.9-1l1.7-.7.1.2-.4.4c-1.9 1.4-4.1 2-6.1 3.2l-.3.1a390.3 390.3 0 0 1-5.6.3Z"/><path fill="url(#e)" d="M185 131.1c-.3-.9.4-1 1-1.4l-1 1.4Z"/><path fill="#290852" d="M128.6 231.8c.6 1 .5 2 .1 3l-1.3 3.4-.8 1.4c-1 1-2.3.4-2.5-.7-.2-.9-.1-1.8 0-2.7 0-.7.3-1.3.5-2l.7-2c-.5 0-1-.2-1.3-.1-1.6.5-3.2.5-4.9.4-1.3 0-2.7.3-4 .5h-.5c-1 0-2 0-3 .3-1.1.2-2.3 0-3.4 0h-5.7l-2-.1c-2-.3-4 0-6-.4-1.1-.2-2.3 0-3.5 0l-2.6-.4c-1.9-.3-3.8-.4-5.6-1-.6-.2-1.4 0-2-.3l-6.9-1.7-1.4-.8-.8-.4c-2 0-3.8-1.3-5.7-1.7-1-.2-2-.8-3-1.2l-5.3-2.6c-.7-.4-1.5-.7-2.2-1.2-1.8-1.3-3.7-2.5-5.4-4-2-1.5-3.8-3.3-5.6-5a23.6 23.6 0 0 1-3.5-3.8l-2.7-3c-1.8-1.9-3-4.1-4.5-6.2l-2.3-3.6-.5-1-1.5-2.8-1.5-3.9-1.1-2.8-1.3-3.4c-1-2.6-1.7-5.3-2.2-8l-.9-3.1-1.4-6.8-.7-5.6-.1-3.3c-.1-3.5-.2-7.1.1-10.7v-.8l.4-5.5c.2-1.9.5-3.8 1-5.6.4-2.4 1-4.8 1.6-7.2.4-1.7.7-3.4 1.3-5 .7-2 1-4 2-5.8.6-1.1.9-2.4 1.3-3.5.8-1.8 1.3-3.6 2.4-5.1l.6-1.4c1.3-2.9 3.3-5.3 5-7.8.8-1 1.8-2 2.5-3 1-1.7 2.6-3 3.9-4.3A106 106 0 0 1 53.9 79l6.2-4.3 3-2.1 2.4-1.3 1.8-1c.5-.4 1.1-.6 1.7-.9.2 0 .3 0 .5-.2 1-.5 1.9-1.1 2.9-1.8-.8-.6-1.5-1.2-2.3-1.6-1.3-.6-2.6-1.2-3.4-2.4-.4-.5-1.1-.9-1.6-1.4a25 25 0 0 1-4-6.3c0-.3-.3-.6-.5-.9l-3-.3a9.1 9.1 0 0 1-5.8-3c-.4-.5-.8-1.2-.9-1.8a9.4 9.4 0 0 1 1.4-7.7l.8-.9c.6-.6 1-1.2.9-2.1v-1.7c.2-1.5-.2-3-1.2-4.2-.5-.7-.9-1.6-1.3-2.4l-1.4-2.5-.4-1c-.3-2-.4-3.8.3-5.8A21 21 0 0 1 56 13c1.2-1.1 2.6-2.3 4-3 1.6-.9 3.1-2 5-2.3.4 0 .9-.5 1.3-.6 1-.2 2-.4 2.9-.4 1.8-.1 3.6-.3 5.5 0 .4 0 .8 0 1.1.2 1 .4 1.7.4 2.4-.4.9-1 1.9-1.7 2.8-2.6 1-.8 2-1.1 3.2-1.2 1.9-.2 3.7 0 5.5.7.6.2 1.2.3 1.7.6l3.2 1.6.7.4 1.5-2.8A5 5 0 0 1 101 1l3.8.3h.1a9 9 0 0 1 3.6 3c1.1 2 1.2 4.1 1 6.3l-.3.9c-1 1.6-1.9 3.2-3.2 4.5l-.5.2c.5.6.7 1 1.1 1.3l2.7 2.3.7.7.7.7c.4.3 1 .5 1.2.9.7 1.2 2 1.8 3 2.8 1 1.2 2.1 2.4 2.4 4.2 0 .6 0 1.1-.3 1.7-.8 1.1-1.7 2.2-3.1 2.7-.3 0-.6.3-.8.5l-1.6.8-1.4.7.4 3.2v7.6c-.2 3.3-1 6.3-2.5 9.3-.7 1.5-1.5 3-2.4 4.4l-.2.5h1.7c3.3-.2 6.5 0 9.8.2l3.1.3c.7 0 1.4.3 2 .5 4 .7 7.6 1.9 11.3 3 1.4.5 2.6 1.2 4 1.8l.8.3 2.7 1.2c.6.3 1.2.7 1.8.8 1.9.5 3.5 1.4 5.1 2.4 3.2 2 6.5 4 9.2 6.9l5.6 6c.8.8 1.7 1.8 1.8 3.1l.2.6c.1.5.3 1.1.3 1.7 0 .8-1 1.3-1.7 1-.3-.2-.6-.3-.8-.6a41.4 41.4 0 0 1-4.8-4.8c-2.3-2.7-4.6-5.5-7.6-7.5-1.7-1.1-3.2-2.6-5.1-3.5-2.2-1-4.2-2.3-6.6-3-.4 0-.8-.2-1.1-.4-1.8-1-3.7-1.6-5.6-2.2-2-.7-4-1.6-6.2-2.2a37 37 0 0 0-7.2-1.4l-3.8-.5H110c-.5.6-.7 1.2-.8 2v.7l-.5 2.8c-.3 2-.8 4.2-1 6.3 0 2-.7 3.6-.8 5.5 0 1.3-.3 2.6-.6 4-.3 1.9-.7 3.7-.8 5.7l-.2 1.4-.3 2.5c0 .5 0 1-.2 1.5-.4 1.5-1.5 1.6-2.4 1.2-1.7-.9-3.4-1.6-4.9-2.8-1-.8-2.1-1.4-3.2-2.1l-.3-.2C93 91.5 91.4 91 90.3 90c-2.4-2-5.1-3.3-7.6-5-1.2-1-2.6-1.6-3.8-2.5L76.6 81l-4.1-3-2-1.2-2.3-1.8c-1 .1-2 .8-2.9 1.4l-7.9 5.4c-1.4 1-2.7 2.3-4.2 3.3-2.4 1.5-4.3 3.8-6.5 5.6-1.6 1.3-2.8 3-4.1 4.5l-.8 1a47.7 47.7 0 0 0-8.2 11.5l-1.7 4-1.4 3.2a55 55 0 0 0-.8 2.1c-.3.8-.7 1.6-.8 2.4-.4 1.7-1.2 3.3-1.4 5-.1 1.2-.5 2.3-.9 3.4-.3 1.2-.8 2.4-1 3.7-.3 1-.3 2-.4 3l-.2 1c-.5 2-.6 4.1-.7 6.2 0 1.4-.3 2.8-.4 4.2v7.8l.2 3.5c0 .9.2 1.7.3 2.5 0 2.5.7 5 1.2 7.4.6 3 1.5 6.1 2.3 9.2 1 4.1 3 8 4.4 12 .8 2.4 2.3 4.3 3.7 6.3 1.4 2.3 3 4.5 4.6 6.8.7 1 1.4 2.1 2.3 3.1.7.8 1.7 1.4 2.5 2.2l2.2 2.1 3 3.2 1.1.6c.6.5 1.5.8 1.8 1.6l.6.5 4.8 2.7 1.6.9 5.9 2.6 2.3 1.3c.2 0 .4.3.5.2 1.1-.2 1.7.7 2.6 1 .5.2 1 .5 1.4.5 2-.1 3.7.7 5.5 1.4 1 .4 1.9.1 2.8.6.4.2.9.3 1.3.3l1.3.3h.9l3.3.6 2.4.2h.5l3.4.6h14.7c1 0 2-.2 3.1 0h.7c1.8 0 3.5-.2 5.3-.3.8 0 1.6-.3 2.4-.4l4.4-.5c.8 0 1.5-.2 2.3-.4l2.6-.2 2.4-.6c2.3-.4 4.4-1 6.7-1.1.5 0 .9-.3 1.3-.4l3-.8 5.2-1.6c.8-.2 1.7-.3 2.5-.6 1.1-.3 2.3-.7 3.3-1.3 1-.6 2-.9 3-1.4l1.2-.7 1-.6 5.5-3.3c1.1-.7 2.3-1.2 3.4-1.7 1-.5 1.6-.1 2 .9.6 1.9.2 3-1.6 4l-5.1 2.8-3 2c-.5.3-1.1.6-1.8.8-1 .3-1.7 1-2.5 1.4l-1.4.5-1.9.7-4 1.7c-1.8.6-3.7 1.3-5.6 1.7-1 .2-2.2.7-3.4.5-.5 0-1 .2-1.6.5-1 .4-2.2.4-3.3.8-1.7.4-3.4.6-5 .8-.5 0-1 .4-1.8.7ZM106 50l-3.5 1.1-2.4.7c-2 .4-4 0-6 0-1.4-.1-2.2-1.3-2-2.7 0-.4.2-.8.4-1.1a2.5 2.5 0 0 1 2.8-1.7l2.4.3c1.8.2 3.5-.2 5.1-.6 1.3-.3 2.5-1.1 3.8-1.7-.1-2.8-.2-5.7-.5-8.4-.5-3.2 1.1-4.5 3.2-5.3 1-.4 1.6-1 2.5-1.7-.8-.7-1.3-1.7-2.3-2.1-.5-.3-.9-.8-1.3-1.2l-.4-.6c-.8-.6-1.6-1.1-2.3-1.8a70.8 70.8 0 0 1-3.5-3.5c-.4-.5-.7-.6-1.3-.3L97.5 21a31.2 31.2 0 0 1-12.3 2c-1.7-.2-3.4-.5-5.1-.5-1.2 0-2.3-.4-3.5-.2-2.8.7-4.4 2.6-5.5 5-1.2 2.4-1.3 5-1.5 7.7 0 2-.1 3.9-.7 5.8-.3.7-.4 1.6-1.1 2l-2.4.9c-2 .4-4.2-.2-6.2.2l-1-.2-.6-.3c-2 1-3 2.4-3 4.5a8.6 8.6 0 0 0 5.6 1.5c1.5 0 2.5.7 3.3 2 1 1.6 1.7 3.6 3.1 5.1 1 1 1.7 2.4 3 3.1.3.1.4.4.6.5.6.5 1 1.1 1.7 1.3 1 .3 1.9.9 2.7 1.4.9.4 1.6 1.1 2.7.9l.7.1c.8.5 1.8.7 2.7.8l2.4.4c1.2.3 2.4.4 3.7 0h1c1.1 0 2-.3 3-.5l2.8-.9c1.2-.2 2-.8 2.6-1.8.3-.6.8-1 1.5-1 1.4-.1 2.3-1 3.2-2 1.4-1.2 2.4-3 3.5-4.5.8-1.4 1-2.8 1.7-4.3ZM72.8 72.3l.8.8c1.5 1.1 3.1 2.2 4.6 3.5 1.1.8 2.2 1.5 3.4 2l.7.4c2.6 1.7 5.3 3.2 7.6 5.3l.6.2 1.2.5c1.3.7 2.1 2 3.6 2.5l.2.1c1.7 1.6 4 2.4 5.8 3.7h.3l.5-3.1 1.4-8.3.8-5.6.8-6.2.3-2 .4-2-2.6.1c-1.3 0-2.4.5-3.5 1.4-.8.7-1.8 1.3-2.8 1.7-.9.3-1.6.8-2.4 1.2-.9.5-2 1-3 1.2-1 .4-2.3.5-3.5.7h-2.8c-1.6 0-3.1 0-4.7-.5-1-.3-2.2-.6-3.4.2-.9.7-2 1.1-3 1.6l-1.3.6Z"/><path fill="#290852" d="M133.5 194.8c-.9.2-2.2.3-3.4.7-1.2.3-2.3.4-3.5.3h-.8c-1.1.5-2.4.4-3.6.4-1.2 0-2.3.3-3.4.2-1.2 0-2.4.4-3.6-.2h-.5c-1.9.2-3.8 0-5.6 0-.5 0-1-.3-1.4-.4-.3 0-.7-.2-1-.1-.9.4-1.8 0-2.6-.3-1-.3-2.2-.3-3.3-.6l-3.9-1-4.6-1.3h-.1c-1.4-.9-3.2-1-4.6-2-.6-.6-1.3-.9-2-1.2-2.3-.9-4.3-2-6.2-3.5-1.4-1.1-2.6-2.6-4-3.7-1-.8-1.6-1.6-2.2-2.6-.3-.6-1-1.2-1.4-1.7-2-1.9-3.4-4.2-4.8-6.4-1.2-1.9-2.5-3.6-3.6-5.5l-3-6c-1-2.5-1.5-5.2-2-7.8-.6-2.2-.8-4.4-1-6.7-.1-1.4.2-3 .7-4.3l.6-.8c.3-.5.8-.7 1.4-.6.6.2.7.7.8 1.1l.5 3.1.8 5.7c.2 1.4.5 2.8.9 4.1.5 2.2 1.3 4.2 2.4 6.2l3.1 5.4 1.9 2.8 1.8 2.3 2.1 3 1.4 2 .2.3c1.4.6 2.2 1.9 3.1 3 1.9 2 4.2 3.3 6.5 4.7l2.4 1.5 2 1 1.7.8.4.2 3.9 1c1 .4 2 .9 3 1.1l3.8.7c1.4.3 2.8.3 4.1.8 1.3.5 2.5.2 3.8.4 1.2.1 2.5 0 3.7.3 1.3.3 2.6-.2 3.9 0 1.2.2 2.5 0 3.8 0h1.5c.5-.1 1-.4 1.4-.3 1.2.2 2.3-.1 3.5-.3 1.3-.3 2.6-.2 3.8-.3.5 0 1 0 1.5-.2 1.8-.7 3.7-.6 5.6-1l2.4-.7 1.5-.4a40 40 0 0 0 6.8-2.2c1-.5 2-.7 3-1 1.5-.7 3-1 4.4-1.9l1-.4c1.1-.3 1.9.2 2 1.3.4 2 0 3-2.1 3.9-.7.2-1.5.2-2.1.5l-4.5 2-3 1.2-5.9 1.8c-1.3.4-2.8.5-4.2.8-.4 0-.7.1-1 .3-1.3.4-2.5.6-4.2.5ZM152.7 168.6l-1.8 1.5c-1.5 1.2-4.2.4-5.4-.8-1.8-1.8-2-5.4-.3-7.1.7-.7 1.2-1.5 2-2 .3-.1.4-.6.3-1 0-1-.3-2.2-.5-3.3l-.1-2-.4-2.8-.5-5.3-.1-2c-.3-1.6-.2-3.1-.4-4.6l-.4-3.9c0-1-.3-1.9-.4-2.8l-.5-6.1-.4-4.7c-.1-1.2-.1-2.4.4-3.5.2-.6.6-1.1 1-1.5.7-.5 1.7-.2 2 .6l.5 3.3c.1 1.5 0 3 .2 4.3l.8 6.7.5 6.1c0 .6 0 1.1.2 1.7.2.8.3 1.5.2 2.3v.8l.5 3.5.4 6.3 1.2 8.3c.2 1 .4 1.3 1.6 1.3h4.1c.7.4 1.4.2 2.2.1 2.5-.3 5-.1 7.6 0l3.5.1a367.1 367.1 0 0 1 12.3.8l5.5.7h1c1.6-.2 3.1.4 4.7.5l.5.1 4.3-.1c1.3 0 1.7.3 1.9 1.7.2 1.4-.3 2.3-2 3.4a6.2 6.2 0 0 1-4.3 1l-2.5-.2H189a4 4 0 0 0-2.1 0h-.4c-1.6-.4-3.2-.3-4.8-.3-1 0-1.7-.3-2.6-.4-.1 0-.3-.1-.4 0-1.4.3-2.9 0-4.3-.2l-3.8-.3-3.8-.2-1.3.2-3.9-.2h-3.3c-1 0-1.8.2-2.6-.2h-.6c-.7 0-1.5 0-2.4.2ZM186.6 92.7l1.8-.4h1.2l2.2.3c.5 0 1 0 1.3.3 1.3.4 2.7.7 3.8 1.7.4.3.9.4 1.3.6 1.2.5 2.3 1.2 3.6 1.5 1 .2 1.7 1 2.6 1.4l.7.3.6.3c1 1.4 2.9 2 3.8 3.5 0 .2 0 .4.2.4 1.8 1 2.2 3 3.2 4.6 1.6 2.6 2.1 5.5 2.3 8.5l-.1 4c-.1.8-.5 1.5-.7 2.4-.7 2.3-1.8 4.4-3.3 6.3l-.9 1.3c-.2.3-.4.8-.7 1-2.2 2.4-4.3 4.9-7 6.7-1.9 1.3-3.5 2.7-5.3 4l-3.8 2.6c-.6.4-1.2.4-1.8 0-.6-.3-.8-1-.8-1.6.1-1.3.5-2.4 1.6-3.2l3.5-2.5c3-1.8 5.7-3.8 8.2-6.2l1.4-1.2c.5-.6.9-1.4 1.5-1.9 1.7-1.5 2.5-3.6 3.4-5.6 1.1-2.4 1.2-5 .4-7.6-.5-2.2-1.6-4-2.9-6l-3-3.5c-.2-.3-.5-.4-.8-.6-.6-.4-1.2-.6-1.6-1.3l-.5-.3-6-2.9c-1.4-.6-2.8-1-4.2-1.4l-1.2-.4c-.6-.3-1.2-.5-2-.2 0 0-.1.1-.2 0-1.7-.4-3.1.5-4.7.8-1 .1-1.9.8-2.9 1.2l-2 .5c-1 .1-1.7-.6-1.5-1.7a4 4 0 0 1 1-2.2 7.9 7.9 0 0 1 4-2.5c1-.2 1.9-.7 2.7-1l1.4-.2c.2 0 .2 0 .2.2ZM138.6 203.7l-2.3-.4c-1.6-.5-2-1.9-.6-3 1.3-1 2.6-1.9 4.2-2.4l5.1-1.8c1.4-.5 2.8-.9 4.1-1.5 1-.6 2.1-.9 3.3-1.2.2 0 .5-.3.8-.5l.7-.4c2.5-.8 4.5-2.5 6.9-3.7l5-2.7 1.1-1 1.6-.5c.4 0 .8.2 1 .7.9 1.7.3 3.6-1.2 4.6a88 88 0 0 1-11 6.3c-1.3.6-2.4 1.6-4 1.7l-.7.3c-1.6 1-3.3 1.6-5 2.2-1.2.4-2.4 1.1-3.6 1.6l-4.8 1.5-.6.2ZM143.8 209.4c-.7-.2-1.4-.2-2.1-.5-.8-.2-.9-.7-.3-1.1 1.8-1.3 3.5-2.6 5.5-3.5 1-.6 2.4-.8 3.4-1.8.5-.5 1.4-.6 2-.9l2.2-.9 1.8-.6.7-.3c1.5-.9 3-1.7 4.6-2.3 1-.4 2-1.1 2.9-1.7l.7-.5c2-.5 3.3-2 5-3 .6-.3 1.2-.6 1.8-.7.7-.2 1 0 1.4.7.6 1.7.4 2.7-1 4l-2.5 1.7-3.5 2.3-1 .5c-1.3.4-2.3 1.2-3.5 1.9-1 .7-2 1.2-3.2 1.6-.9.3-1.7.7-2.6 1.2l-3.7 1.6c-.8.3-1.5.8-2.4.6h-.4c-1.3 1-2.8 1.1-4.3 1.5l-1.5.2ZM149.6 216.4c-.6 0-1.2-.1-1.7-.3-1-.4-1.3-1.3-.6-2.1a11.8 11.8 0 0 1 5.7-3.6c1.7-.5 3.3-1.3 4.9-2l2.6-1 5.2-2.5 2-1c.3 0 .5-.2.7-.3l3.4-2.2c.4-.3.9-.4 1.3-.5.7 0 1 .2 1.3.8 1 2.3.4 3.6-1.7 4.8-1.6.8-3 1.8-4.6 2.7-2 1-3.9 2.3-6 3-.8.1-1.5.5-2.3.8-2.5 1-5 2.1-7.6 3-.8.3-1.7.3-2.6.4Z"/><path fill="#290852" d="M201.4 114c.1.7 0 1.2-.5 1.8l-2.1 2.4-4.7 5-4.6 4.3-2.8 2.6-5.4 4.2-1.2 1c-1.2 1-2.7 0-2.7-1.3 0-1.6.6-2.9 2-3.8l3.4-2.6 4-3.1.1-.1 4.7-4.5 2.5-2.5 3.1-3.4c.6-.5 1.2-1 1.7-1.7.5-.5 1.1-.6 1.8-.3.6.2.7.8.7 1.4v.6ZM207.2 119.5a4 4 0 0 1-1.2 3.2l-5.3 5.4-3.8 4c-1 1.2-2.4 2.1-3.4 3.3-1.6 1.9-3.8 3-5.4 4.7-.4.4-.9.6-1.3.9-1.2.8-2.4 0-2.6-1.2-.1-1.4.2-2.8 1.5-3.6 3.3-2.1 6.1-4.8 8.8-7.5l3.8-3.8 5.3-5.5c.4-.5 1-1 1.6-1.3 1.2-.7 1.8-.3 2 1.1v.3ZM194.3 109a5.8 5.8 0 0 1-1.6 3.4c-2.7 3-5.6 6-8.6 8.7l-5.8 5.1c-1 .9-2 1.8-3.1 2.5-.5.2-1 .4-1.5.2-.7-.3-1-.7-1-1.5 0-1 .1-1.9.8-2.6 1-1.1 1.8-2.2 3.1-2.8.5-.2.8-.6 1.2-1 3.7-2.9 7-6.2 10.3-9.5l3.1-3.3c.5-.4 1-.7 1.7-.9 1-.3 1.3 0 1.4 1v.6ZM119.8 99.1c.2-.6.3-1.3.6-1.8.5-1 1.8-1 2.4-.1 1 1.5 1.7 3.1 2.2 4.9 0 .2 0 .5.2.7l2.5 5.4 1.2 2.8c.5 1 .1 1.8-.4 2.6-.6 1-1.6.8-2 .2-1.1-1.2-2.3-2.2-2.7-3.9-.3-1-.8-2-1.2-2.9l-.4-1.1-.8-2c-.6-1.6-1.5-3-1.6-4.8ZM79 133.2c.1-1 .3-1.8 1-2.4.5-.6 1.2-.8 2-.5l3.6 1.7.6.2c1.9 0 3.3 1.3 5 2 1.1.3 1.3 1.5 1.3 2.6 0 1-.5 1.9-1.4 2.3-.4.2-1 .2-1.4 0L85 137l-.5-.3-3.9-1.3c-1.1-.4-1.5-1-1.4-2.2ZM203.1 193l1 .4c.6.6 1.4 1.1 2.3 1.5.6.2 1.2.8 1.8 1.2l1 .4 1.3.8.9.6c1 .6 1.6 2.3 1.1 3.3l-.5 1c-.8 1-1.6 1.1-2.7.4-1-.7-1.9-1.4-3-1.8-1.6-.6-3-1.8-4.6-2.6-1-.6-1.4-2-1-3.5.3-1 1-1.6 2-1.7h.4ZM215.2 135l-.5 1.1a6.6 6.6 0 0 1-3 2.4c-1 .5-2 1.2-2.9 1.8l-4.3 3-.6.4c-.5.3-1.1.4-1.6 0s-.7-1-.6-1.6c.2-1.3.7-2.5 1.8-3.3 1.7-1.2 3.4-2.6 5.2-3.6 1.3-.7 2.5-1.8 4-2.3 1.5-.5 2.1-.3 2.4 1.4v.7ZM164.2 107l.1-.7 2.1-9.7c.2-.9.6-1.6 1.3-2.2.9-.7 1.9-.4 2.2.7a5 5 0 0 1 0 2.9l-1 4.6-.7 4a4 4 0 0 1-1.1 2c-.5.5-1 .9-1.7.7-.8-.3-1.1-.9-1.2-1.7v-.7ZM176.3 231.1c-.2.5-.5 1.3-1 1.9-.4.6-1.2.6-1.9.1-.4-.2-.7-.5-.9-1l-1.8-3.5c-.5-1.2-1.2-2.4-1.3-3.8v-2.5c0-.5.3-1 .6-1.5.5-.8 1.5-.8 2 .1.8 1.2 1.3 2.6 1.5 4 .3 1.2.8 2.2 1.5 3.2.6.9 1.1 1.7 1.3 3ZM92.4 33l-.6 1.7c-.8 1.6-2 2.8-4 3.2l-1.9.5c-1.9.4-3.8-.6-6-1.4a3 3 0 0 1-1.3-.9c-.9-1.2-.3-3.7 1-4.5.5-.3 1.3-.3 1.8 0l.7.7a5.7 5.7 0 0 0 7.3-1l.5-.4c1-.7 1.7-.4 2.1.7l.4 1.4Z"/></g><defs><linearGradient id="b" x1="75.1" x2="218.8" y1="166.7" y2="166.7" gradientUnits="userSpaceOnUse"><stop stop-color="#F60"/><stop offset="1" stop-color="#F4AC2B"/></linearGradient><linearGradient id="c" x1="186.6" x2="200.3" y1="122.4" y2="122.4" gradientUnits="userSpaceOnUse"><stop stop-color="#F60"/><stop offset="1" stop-color="#F4AC2B"/></linearGradient><linearGradient id="d" x1="150.1" x2="162.5" y1="202.3" y2="202.3" gradientUnits="userSpaceOnUse"><stop stop-color="#F60"/><stop offset="1" stop-color="#F4AC2B"/></linearGradient><linearGradient id="e" x1="184.9" x2="186.1" y1="130.4" y2="130.4" gradientUnits="userSpaceOnUse"><stop stop-color="#F60"/><stop offset="1" stop-color="#F4AC2B"/></linearGradient><clipPath id="a"><path fill="#fff" d="M0 0h240v240H0z"/></clipPath></defs></svg>