<svg width="24" height="24" viewBox="0 0 24 24" fill="none" xmlns="http://www.w3.org/2000/svg">
<path d="M8.91406 17.2H12.3426L15.7712 20.6286V17.2H17.4855C17.9401 17.2 18.3762 17.0194 18.6977 16.6979C19.0192 16.3764 19.1998 15.9404 19.1998 15.4857V9.77141C19.1998 9.31676 19.0192 8.88072 18.6977 8.55923C18.3762 8.23774 17.9401 8.05713 17.4855 8.05713H16.9141" stroke="white" stroke-width="1.5" stroke-linecap="round" stroke-linejoin="round"/>
<path d="M14.0573 5.77148H4.91448C4.45982 5.77148 4.02379 5.9521 3.7023 6.27359C3.38081 6.59508 3.2002 7.03111 3.2002 7.48577V13.2001C3.2002 13.6547 3.38081 14.0907 3.7023 14.4122C4.02379 14.7337 4.45982 14.9143 4.91448 14.9143H6.62877V18.3429L10.0573 14.9143H14.0573C14.512 14.9143 14.948 14.7337 15.2695 14.4122C15.591 14.0907 15.7716 13.6547 15.7716 13.2001V7.48577C15.7716 7.03111 15.591 6.59508 15.2695 6.27359C14.948 5.9521 14.512 5.77148 14.0573 5.77148V5.77148Z" stroke="white" stroke-width="1.5" stroke-linecap="round" stroke-linejoin="round"/>
</svg>
