<svg xmlns="http://www.w3.org/2000/svg" width="60" height="60" fill="none"><rect width="60" height="60" fill="#290852" rx="30"/><path fill="#fff" d="M38.5 21.5A12 12 0 0 0 23 20.3a11.9 11.9 0 0 0-4.7 6.8c-.6 2.8-.3 5.7 1 8.2L18 41.4a.4.4 0 0 0 .1.4.5.5 0 0 0 .5.2l6-1.4a12 12 0 0 0 8.3.9 12 12 0 0 0 6.8-4.6 11.8 11.8 0 0 0 2.3-8 11.9 11.9 0 0 0-3.5-7.4Zm-1.9 15a9.4 9.4 0 0 1-5 2.6 9.5 9.5 0 0 1-5.8-.9l-.8-.4-3.7.9.7-3.8-.4-.8a9.3 9.3 0 0 1-.9-5.7 9.3 9.3 0 0 1 2.7-5 9.4 9.4 0 0 1 6.6-2.8 9.4 9.4 0 0 1 6.7 2.8 9.3 9.3 0 0 1 2.7 6.5 9.3 9.3 0 0 1-2.8 6.6Z"/><path fill="#fff" d="M36.3 33.8c-.4.7-1.2 1.6-2 1.8-1.6.3-4 0-7.1-2.8-2.7-2.5-3.4-4.5-3.2-6.1 0-1 .8-1.8 1.5-2.3a.9.9 0 0 1 1.3.3l1 2.2a.8.8 0 0 1 0 .8l-.6.7a.8.8 0 0 0 0 1c.2.4.9 1.1 1.6 1.8.8.7 1.8 1.4 2.3 1.6a.8.8 0 0 0 1-.2l.5-.6a.9.9 0 0 1 .9-.2l2.3.7a.9.9 0 0 1 .6.5.9.9 0 0 1 0 .8Z"/></svg>